<svg width="105" height="105" viewBox="0 0 105 105" fill="none" xmlns="http://www.w3.org/2000/svg">
<g clip-path="url(#clip0)">
<path d="M52.32 104.64C81.2155 104.64 104.64 81.2155 104.64 52.32C104.64 23.4245 81.2155 0 52.32 0C23.4245 0 0 23.4245 0 52.32C0 81.2155 23.4245 104.64 52.32 104.64Z" fill="url(#paint0_linear)"/>
<path d="M51.39 104.72C44.5185 104.598 37.7383 103.123 31.4367 100.38C25.1352 97.6372 19.4356 93.6799 14.6635 88.7341C9.89141 83.7884 6.14027 77.9511 3.62429 71.5555C1.10832 65.16 -0.123223 58.3315 5.60656e-06 51.4599C0.043337 49.1365 0.237076 46.8183 0.580006 44.5199C5.45001 43.3199 10.25 41.9999 15 40.3499C21.1392 38.3165 27.1161 35.8228 32.88 32.8899C37.9628 30.3422 42.7316 27.2111 47.09 23.5599C51.431 19.9373 55.0479 15.5265 57.75 10.5599C57.9 10.2699 58.06 9.96994 58.2 9.67994C58.4722 8.87404 58.6959 8.05257 58.87 7.21994C58.9318 6.98601 59.055 6.77281 59.2267 6.60234C59.3984 6.43186 59.6125 6.3103 59.8469 6.25017C60.0813 6.19005 60.3275 6.19355 60.5601 6.2603C60.7926 6.32706 61.0032 6.45466 61.17 6.62994L64.17 10.2699C70.39 17.2766 76.7233 24.1833 83.17 30.9899C90.11 38.3233 97.1733 45.5333 104.36 52.6199L104.65 52.8999C104.65 53.0499 104.65 53.1999 104.65 53.3499C104.398 67.2242 98.645 80.4302 88.6572 90.0635C78.6694 99.6969 65.2643 104.969 51.39 104.72V104.72Z" fill="white"/>
<path d="M68.15 32.7301L64.49 28.7301C64.4547 28.6439 64.4076 28.5632 64.35 28.4901C63.7067 27.6922 63.0119 26.9372 62.27 26.2301C62.1926 26.1403 62.0981 26.0669 61.9919 26.0141C61.8857 25.9614 61.7701 25.9304 61.6518 25.9229C61.5335 25.9155 61.4149 25.9317 61.303 25.9707C61.1911 26.0097 61.088 26.0707 61 26.1501L60.94 26.2101C60.8711 26.2404 60.807 26.2809 60.75 26.3301L57.9 28.7801C57.0217 29.4684 56.2204 30.2496 55.51 31.1101C55.1342 31.5495 54.8731 32.0751 54.75 32.6401C54.66 33.3301 55.25 33.9401 55.62 34.4601C56.32 35.4601 57.04 36.3601 57.8 37.2801C58.56 38.2001 59.58 39.2801 60.52 40.2801C60.6696 40.4554 60.8814 40.566 61.1108 40.5884C61.3402 40.6107 61.5693 40.5432 61.75 40.4001C63.8833 38.2934 65.9667 36.1601 68 34.0001C68.0948 33.9277 68.1742 33.837 68.2333 33.7334C68.2924 33.6298 68.3301 33.5153 68.3441 33.3968C68.358 33.2784 68.3481 33.1583 68.3147 33.0437C68.2814 32.9292 68.2254 32.8225 68.15 32.7301ZM61.21 38.5101C59.9406 37.1495 58.7424 35.7242 57.62 34.2401C57.3 33.8101 56.98 33.3701 56.67 32.9301L56.53 32.7401C56.6316 32.5593 56.7452 32.3856 56.87 32.2201C57.4567 31.5017 58.1283 30.857 58.87 30.3001L61.49 28.0001C61.5248 28.0803 61.572 28.1546 61.63 28.2201L66.29 33.2201C64.62 35.0001 62.92 36.7901 61.21 38.5101V38.5101Z" fill="#C3BCCC"/>
<path d="M76.04 40.5L79.71 44.5C79.833 44.6754 79.8885 44.8893 79.8665 45.1024C79.8444 45.3155 79.7463 45.5135 79.59 45.66C77.53 47.84 75.4334 49.9967 73.3 52.13C73.1194 52.2732 72.8902 52.3407 72.6608 52.3183C72.4314 52.2959 72.2196 52.1854 72.07 52.01C71.13 51.06 70.11 49.92 69.35 49.01C68.59 48.1 67.87 47.2 67.18 46.2C66.8 45.67 66.22 45.07 66.3 44.37C66.4268 43.8044 66.6913 43.2788 67.07 42.84C67.7779 41.9772 68.5795 41.1957 69.46 40.51L72.34 38.06C72.397 38.0108 72.4611 37.9704 72.53 37.94L72.59 37.88C72.7707 37.7368 72.9998 37.6693 73.2292 37.6917C73.4587 37.7141 73.6704 37.8246 73.82 38C74.5621 38.707 75.2569 39.4619 75.9 40.26C75.9618 40.3302 76.0094 40.4117 76.04 40.5Z" fill="#C3BCCC"/>
<path d="M91.23 56.7L87.35 52.94C87.3117 52.8593 87.2611 52.7851 87.2 52.72C86.5145 51.9528 85.7796 51.2312 85 50.56C84.8385 50.3991 84.6225 50.3047 84.3948 50.2954C84.167 50.2862 83.944 50.3627 83.77 50.51L83.71 50.57C83.6441 50.6084 83.5835 50.6555 83.53 50.71L80.78 53.3C79.9371 54.036 79.176 54.8607 78.51 55.76C78.1632 56.2226 77.9302 56.7605 77.83 57.33C77.83 58.03 78.4 58.6 78.83 59.1C79.58 60.03 80.35 60.92 81.16 61.8C81.97 62.68 83.04 63.8 84.04 64.68C84.2056 64.8383 84.4259 64.9266 84.655 64.9266C84.8841 64.9266 85.1044 64.8383 85.27 64.68C87.27 62.44 89.25 60.1733 91.21 57.88C91.3549 57.7187 91.4367 57.5105 91.4404 57.2937C91.4441 57.0769 91.3694 56.8661 91.23 56.7V56.7ZM84.6 62.85C83.2611 61.5595 81.9894 60.201 80.79 58.78C80.44 58.36 80.1 57.95 79.79 57.52C79.79 57.47 79.69 57.39 79.64 57.34V57.29C79.7299 57.1058 79.8335 56.9286 79.95 56.76C80.4879 56.0245 81.1086 55.3534 81.8 54.76L84.32 52.39C84.3583 52.4676 84.409 52.5385 84.47 52.6L89.39 57.39C87.7967 59.21 86.2 61.03 84.6 62.85Z" fill="#C3BCCC"/>
<path d="M62.58 23.9999C61.7753 27.2179 61.5552 30.5542 61.93 33.8499C60.2406 33.3149 58.449 33.1848 56.7 33.4699C56.4251 33.4927 56.169 33.6189 55.9834 33.823C55.7978 34.0272 55.6965 34.2941 55.7 34.5699C55.718 34.8485 55.8442 35.1089 56.0516 35.2957C56.259 35.4826 56.5311 35.581 56.81 35.5699C58.833 35.206 60.9195 35.5151 62.75 36.4499C63.39 36.7799 64.44 36.2799 64.29 35.4499C63.6221 31.8006 63.738 28.051 64.63 24.4499C64.6794 24.1821 64.6228 23.9056 64.4722 23.6787C64.3215 23.4518 64.0886 23.2923 63.8226 23.2339C63.5565 23.1755 63.2782 23.2228 63.0464 23.3657C62.8146 23.5086 62.6473 23.736 62.58 23.9999V23.9999Z" fill="#FF3938"/>
<path d="M74.27 36.38C73.4687 39.5985 73.2519 42.9348 73.63 46.23C71.9396 45.7001 70.1493 45.57 68.4 45.85C68.1251 45.8727 67.869 45.9989 67.6834 46.2031C67.4978 46.4072 67.3965 46.6741 67.4 46.95C67.418 47.2267 67.5428 47.4857 67.748 47.6722C67.9532 47.8588 68.2228 47.9584 68.5 47.95C70.523 47.5845 72.6099 47.8937 74.44 48.83C75.08 49.16 76.13 48.66 75.98 47.83C75.3154 44.18 75.4347 40.4304 76.33 36.83C76.3591 36.5695 76.2907 36.3075 76.1379 36.0945C75.9851 35.8815 75.7589 35.7327 75.5028 35.6768C75.2467 35.6208 74.979 35.6617 74.7513 35.7916C74.5237 35.9215 74.3522 36.1311 74.27 36.38V36.38Z" fill="#FF3938"/>
<path d="M99.44 64.69C98.7439 63.9322 97.999 63.2207 97.21 62.56C97.0433 62.404 96.8234 62.3171 96.595 62.3171C96.3666 62.3171 96.1468 62.404 95.98 62.56L95.92 62.62L95.74 62.76L93 65.35C92.1668 66.0912 91.4188 66.9231 90.77 67.83C90.4179 68.2923 90.1875 68.8356 90.1 69.41C90.1 70.11 90.68 70.67 91.1 71.17C91.86 72.08 92.64 72.97 93.46 73.84C94.28 74.71 95.36 75.78 96.37 76.69C96.5356 76.8484 96.7559 76.9367 96.985 76.9367C97.2141 76.9367 97.4344 76.8484 97.6 76.69C98.4 75.77 99.21 74.85 100 73.92C100.938 71.8514 101.74 69.7235 102.4 67.55L99.58 64.87C99.5415 64.8041 99.4945 64.7436 99.44 64.69ZM97 74.85C95.646 73.5834 94.3576 72.2483 93.14 70.85C92.79 70.44 92.44 70.03 92.14 69.61C92.099 69.5459 92.0521 69.4856 92 69.43C92 69.43 92 69.43 92 69.38C92.0876 69.1914 92.1913 69.0107 92.31 68.84C92.8359 68.101 93.4505 67.4294 94.14 66.84L96.63 64.43C96.6706 64.5093 96.721 64.5832 96.78 64.65L101.78 69.37C100.16 71.1967 98.5667 73.0234 97 74.85Z" fill="#C3BCCC"/>
<path d="M44.81 49.22C45.3247 48.9005 45.6976 48.3961 45.852 47.8102C46.0063 47.2244 45.9305 46.6017 45.64 46.07C45.3293 45.5456 44.8246 45.1645 44.2352 45.0092C43.6457 44.8539 43.0188 44.9368 42.49 45.24C31.5462 52.9467 19.3731 58.739 6.49 62.37C4.76 62.86 3.01 63.3 1.25 63.71C1.58 65.22 1.98 66.71 2.44 68.16C13.8497 65.4971 24.8159 61.2029 35 55.41C38.3867 53.51 41.6567 51.4467 44.81 49.22Z" fill="#C3BCCC"/>
<path d="M46 70.1099C49.8363 67.7308 53.551 65.1609 57.13 62.4099C57.6516 62.0969 58.0328 61.5952 58.1947 61.0089C58.3567 60.4225 58.287 59.7963 58 59.2599C57.6875 58.7375 57.1829 58.3581 56.5942 58.203C56.0055 58.0479 55.3794 58.1293 54.85 58.4299C48.5392 63.1772 41.9066 67.4809 35 71.3099C28.24 75.1499 21.45 79.0899 14.39 82.3099C13.14 82.8799 11.87 83.4099 10.59 83.8999C11.5567 85.1799 12.5867 86.4199 13.68 87.6199C17.6516 85.9235 21.5304 84.0175 25.3 81.91C32.28 78.12 39.27 74.3399 46 70.1099Z" fill="#C3BCCC"/>
<path d="M34.37 63.2099C34.0522 62.6904 33.5451 62.3146 32.9556 62.1616C32.3662 62.0087 31.7403 62.0905 31.21 62.3899C22.633 66.873 13.6909 70.6197 4.48001 73.5899C5.11334 75.0099 5.80334 76.3966 6.55001 77.7499C15.8489 74.7089 24.8798 70.9026 33.55 66.3699C34.0695 66.0521 34.4453 65.5451 34.5983 64.9556C34.7513 64.3661 34.6694 63.7403 34.37 63.2099Z" fill="#C3BCCC"/>
<path d="M68.47 68.1101C68.8987 67.6759 69.1391 67.0902 69.1391 66.4801C69.1391 65.8699 68.8987 65.2843 68.47 64.8501C68.0321 64.4284 67.4479 64.1929 66.84 64.1929C66.2321 64.1929 65.6479 64.4284 65.21 64.8501C53.1036 74.8679 39.911 83.4952 25.88 90.5701C23.88 91.5634 21.88 92.5301 19.88 93.4701C21.26 94.5501 22.6867 95.5501 24.16 96.4701C35.9003 90.8443 47.0976 84.1494 57.61 76.4701C61.3233 73.8234 64.9433 71.0367 68.47 68.1101Z" fill="#C3BCCC"/>
<path d="M73.15 79.26C73.5811 78.8271 73.8232 78.241 73.8232 77.63C73.8232 77.019 73.5811 76.4329 73.15 76C72.7138 75.579 72.1312 75.3438 71.525 75.3438C70.9188 75.3438 70.3362 75.579 69.9 76C58.9636 84.6381 47.3945 92.4433 35.29 99.35L32.59 100.87C34.4949 101.653 36.4451 102.321 38.43 102.87C47.0207 97.9168 55.3455 92.5161 63.37 86.69C66.68 84.28 70 81.8 73.15 79.26Z" fill="#C3BCCC"/>
<path d="M83.23 86.55C83.6004 86.1103 83.7928 85.5479 83.7692 84.9735C83.7456 84.3991 83.5077 83.8544 83.1025 83.4466C82.6972 83.0389 82.154 82.7977 81.5797 82.7705C81.0055 82.7434 80.4419 82.9323 80 83.3C70.9411 90.9216 61.4952 98.0711 51.7 104.72C54.7131 104.76 57.724 104.543 60.7 104.07C65.54 100.61 70.2967 97.0333 74.97 93.3399C77.7433 91.1133 80.4967 88.85 83.23 86.55Z" fill="#C3BCCC"/>
<path d="M21.73 47C21.4088 46.4844 20.9018 46.1118 20.3137 45.9592C19.7256 45.8066 19.1014 45.8856 18.57 46.18C12.5629 48.9587 6.35539 51.2819 0 53.13C0 54.72 0.11 56.29 0.27 57.85C7.33738 55.8142 14.235 53.2297 20.9 50.12C21.4164 49.8096 21.7918 49.3104 21.9467 48.7281C22.1016 48.1458 22.0239 47.526 21.73 47V47Z" fill="#C3BCCC"/>
</g>
<defs>
<linearGradient id="paint0_linear" x1="12.97" y1="20.6" x2="101.62" y2="92.06" gradientUnits="userSpaceOnUse">
<stop stop-color="#FF742C"/>
<stop offset="0.2" stop-color="#FF6B2E"/>
<stop offset="0.54" stop-color="#FF5133"/>
<stop offset="0.81" stop-color="#FF3938"/>
</linearGradient>
<clipPath id="clip0">
<rect width="104.65" height="104.72" fill="white"/>
</clipPath>
</defs>
</svg>
