<svg width="106" height="106" viewBox="0 0 106 106" fill="none" xmlns="http://www.w3.org/2000/svg">
<g clip-path="url(#clip0)">
<path d="M52.54 105.08C81.557 105.08 105.08 81.557 105.08 52.54C105.08 23.523 81.557 0 52.54 0C23.523 0 0 23.523 0 52.54C0 81.557 23.523 105.08 52.54 105.08Z" fill="url(#paint0_linear)"/>
<path d="M52.54 105.37C59.4392 105.37 66.2708 104.011 72.6447 101.37C79.0186 98.73 84.8099 94.8597 89.6879 89.9808C94.5659 85.1019 98.435 79.3098 101.074 72.9355C103.714 66.5611 105.071 59.7292 105.07 52.83C105.078 50.4889 104.924 48.15 104.61 45.83C99.77 44.56 95 43.1 90.24 41.4C84.1133 39.2493 78.1566 36.642 72.42 33.6C67.3678 30.9559 62.6395 27.7343 58.33 24C54.0321 20.2748 50.4794 15.7686 47.86 10.72C47.71 10.43 47.56 10.13 47.42 9.83003C47.1596 9.01697 46.9492 8.18876 46.79 7.35003C46.7334 7.11293 46.6141 6.8954 46.4446 6.72022C46.2751 6.54503 46.0616 6.41862 45.8265 6.35422C45.5914 6.28983 45.3433 6.2898 45.1082 6.35416C44.873 6.41851 44.6595 6.54487 44.49 6.72003L41.38 10.32C35.0067 17.24 28.5467 24.0567 22 30.77C14.8733 38.0234 7.64 45.1367 0.3 52.11L0 52.39V52.84C-1.25012e-07 59.7392 1.35906 66.5708 3.99956 72.9447C6.64007 79.3186 10.5103 85.1099 15.3892 89.9879C20.2681 94.8659 26.0602 98.735 32.4346 101.374C38.809 104.014 45.6408 105.371 52.54 105.37Z" fill="white"/>
<path d="M56.27 70.93C57.6561 69.7633 58.9072 68.4451 60 67C60.62 66.16 61.24 65.33 61.82 64.47C61.9093 64.3198 62.0522 64.209 62.22 64.16C63.17 62.74 64.07 61.28 64.9 59.79C65.25 59.1 65.61 58.41 65.99 57.73C66.0594 57.5942 66.172 57.4851 66.31 57.42C66.8 56.5 67.31 55.58 67.82 54.68V54.54C67.484 54.5701 67.15 54.6202 66.82 54.69C66.6798 53.9656 66.4825 53.2534 66.23 52.56C66.87 51.96 67.5 51.34 68.11 50.7C68.11 50.7 68.22 50.6 68.27 50.54V50.38C68.2524 48.8726 68.0984 47.3698 67.81 45.89C67.59 45.59 67.37 45.29 67.14 45C66.6627 44.3292 66.1451 43.6881 65.59 43.08C65.02 42.5 64.44 42.86 63.87 43.24C63.2544 43.6481 62.6816 44.1171 62.16 44.64C61.9133 44.9 61.6733 45.17 61.44 45.45C61.37 45.54 61.11 45.97 60.96 46.19H60.89C60.5745 45.9871 60.2395 45.8162 59.89 45.68V45.68L59.16 41.76C59.07 41.29 59.08 40.6 58.74 40.24C58.4 39.88 57.84 40 57.39 40.06C54.9025 40.4091 52.4476 40.9609 50.05 41.71C49.9082 41.752 49.7882 41.8474 49.7154 41.9761C49.6427 42.1049 49.6228 42.2569 49.66 42.4C50.292 43.8732 50.742 45.4179 51 47C50.4344 47.2843 49.8955 47.619 49.39 48C48.6578 48.5306 47.987 49.141 47.39 49.82C46.2631 49.1782 45.1836 48.4563 44.16 47.66C44.0551 47.5556 43.913 47.497 43.765 47.497C43.617 47.497 43.4749 47.5556 43.37 47.66C42.0373 49.3513 41.0825 51.3086 40.57 53.4C40.38 54.2 39.91 55.4 40.77 56C41.3134 56.3151 41.8743 56.5989 42.45 56.85L43.86 57.55C43.8923 57.6274 43.94 57.6975 44.0001 57.7559C44.0603 57.8143 44.1317 57.86 44.21 57.89C44.2 59.2139 44.4304 60.5285 44.89 61.77C44.96 61.96 45.03 62.15 45.11 62.34C43.99 63.28 42.9033 64.28 41.85 65.34C41.7933 65.4018 41.7509 65.4754 41.7259 65.5555C41.7009 65.6356 41.6939 65.7202 41.7054 65.8033C41.7168 65.8863 41.7465 65.9659 41.7922 66.0362C41.838 66.1065 41.8987 66.1659 41.97 66.21C42.857 67.0079 43.6099 67.9431 44.2 68.98C44.9453 69.9621 45.7466 70.9003 46.6 71.79C46.7045 71.8914 46.8444 71.9482 46.99 71.9482C47.1356 71.9482 47.2755 71.8914 47.38 71.79C48.4568 70.7192 49.428 69.5471 50.28 68.29H50.42C52.0593 69.1268 53.8798 69.5458 55.72 69.51C55.9384 69.969 56.1222 70.4437 56.27 70.93V70.93ZM52.41 55.93C52.7206 55.0886 53.2704 54.3564 53.9917 53.8233C54.713 53.2903 55.5745 52.9798 56.47 52.93C57.0684 52.9391 57.6524 53.1152 58.156 53.4386C58.6596 53.7619 59.0628 54.2196 59.32 54.76C59.7069 55.3553 59.9128 56.0501 59.9128 56.76C59.9128 57.47 59.7069 58.1647 59.32 58.76C58.7954 59.5589 58.0145 60.1555 57.1058 60.4518C56.1971 60.748 55.2147 60.7262 54.32 60.39C53.8861 60.2372 53.4889 59.9957 53.1536 59.6808C52.8183 59.3659 52.5523 58.9846 52.3726 58.5612C52.1929 58.1378 52.1034 57.6816 52.1099 57.2217C52.1163 56.7618 52.2185 56.3082 52.41 55.89V55.93Z" fill="#C3BCCC"/>
<path d="M50.85 67.8901V67.8101C50.7816 67.8793 50.7433 67.9727 50.7433 68.0701C50.7433 68.1674 50.7816 68.2608 50.85 68.3301C50.798 68.188 50.798 68.0321 50.85 67.8901Z" fill="white"/>
<path d="M71.37 60.75C71.3708 60.6661 71.3437 60.5843 71.293 60.5173C71.2424 60.4504 71.171 60.4021 71.09 60.38C70.2274 60.2199 69.3426 60.2199 68.48 60.38C68.3867 59.8724 68.2495 59.3739 68.07 58.89C68.52 58.47 68.96 58.03 69.39 57.59C69.82 57.15 70.23 56.86 70.33 56.41C70.43 55.96 70 55.36 69.71 55C69.42 54.64 69.07 54.07 68.71 53.62C68.35 53.17 68.01 52.68 67.61 52.27C67.21 51.86 66.8 52.12 66.4 52.39L65.95 52.72C66.118 52.6431 66.3064 52.6229 66.4868 52.6626C66.6673 52.7023 66.8299 52.7997 66.95 52.94C67.0433 52.9398 67.1356 52.9603 67.22 53C67.3918 53.0694 67.5324 53.1992 67.6153 53.3649C67.6982 53.5306 67.7176 53.721 67.67 53.9C67.15 55.13 66.59 56.34 65.96 57.52C65.96 57.6 65.89 57.68 65.86 57.77C65.2352 59.2488 64.4718 60.6651 63.58 62C63.5599 62.4463 63.4181 62.8785 63.17 63.25C62.968 63.5523 62.7141 63.8163 62.42 64.03L61.86 65.03C61.7893 65.1595 61.6801 65.2637 61.5475 65.3282C61.4149 65.3927 61.2655 65.4143 61.12 65.39C60.75 65.82 60.36 66.24 59.95 66.64L59.62 67.27C59.5477 67.3968 59.4403 67.5 59.3109 67.5674C59.1814 67.6348 59.0353 67.6635 58.89 67.65C58.42 68.06 57.89 68.46 57.42 68.83C57.3228 68.909 57.2046 68.9576 57.08 68.97C56.3704 69.5014 55.629 69.989 54.86 70.43C54.7371 70.4983 54.5978 70.5316 54.4573 70.5263C54.3168 70.5211 54.1804 70.4774 54.063 70.4002C53.9455 70.3229 53.8514 70.2149 53.791 70.088C53.7305 69.961 53.706 69.8199 53.72 69.68C53.585 69.7962 53.414 69.862 53.2359 69.8662C53.0579 69.8705 52.8839 69.8128 52.7435 69.7032C52.6032 69.5935 52.5052 69.4386 52.4663 69.2648C52.4274 69.091 52.4499 68.9091 52.53 68.75C52.72 68.39 52.92 68.03 53.12 67.67C53.0801 67.5227 53.0801 67.3674 53.12 67.22C53.12 67.22 53.12 67.14 53.12 67.09C52.85 67.59 52.57 68.09 52.27 68.56C52.1739 68.7074 52.0297 68.8168 51.8619 68.8697C51.6941 68.9226 51.5132 68.9156 51.35 68.85C51.781 69.3675 52.1785 69.9119 52.54 70.48C53.058 71.1809 53.6191 71.8489 54.22 72.48C54.2931 72.5527 54.3919 72.5935 54.495 72.5935C54.5981 72.5935 54.6969 72.5527 54.77 72.48C55.5162 71.728 56.1861 70.904 56.77 70.02H56.87C58.0223 70.6129 59.3045 70.9085 60.6 70.88C60.7907 71.2533 60.9512 71.6412 61.08 72.04C61.1467 72.2934 61.2067 72.5434 61.26 72.79C61.2719 72.9689 61.3382 73.1399 61.45 73.28C61.78 73.59 62.24 73.28 62.57 73.12L64.06 72.5L65.48 71.9C65.84 71.76 66.42 71.64 66.67 71.32C66.92 71 66.67 70.48 66.56 70.13C66.45 69.78 66.19 69.26 65.98 68.84V68.78C66.212 68.5614 66.4291 68.3275 66.63 68.08C67.212 67.3511 67.6745 66.5342 68 65.66L69.93 65.92C70.2 65.92 70.57 66.09 70.82 65.92C71.07 65.75 71.1 65.44 71.16 65.19C71.4434 63.7279 71.5141 62.2324 71.37 60.75V60.75Z" fill="#D2CDD7"/>
<path d="M65.58 53.25C65.5856 53.2102 65.5856 53.1698 65.58 53.13C65.6091 53.0369 65.653 52.9491 65.71 52.87C65.5767 52.9767 65.4467 53.0967 65.32 53.23C65.4071 53.219 65.4956 53.2258 65.58 53.25V53.25Z" fill="white"/>
<path d="M21.71 47.0901V47.2301C21.67 47.6101 21.64 47.9901 21.62 48.3701C21.62 48.3701 21.62 48.4601 21.62 48.5101C21.62 48.0301 21.72 47.5601 21.78 47.0801L21.71 47.0901Z" fill="#ED815F"/>
<path d="M66.52 55.3301C66.95 53.9517 67.1593 52.5139 67.14 51.0701C67.1306 50.401 67.0805 49.7331 66.99 49.0701C67.035 49.8161 67.035 50.5641 66.99 51.3101C66.9842 52.6634 66.8265 54.0119 66.52 55.3301V55.3301Z" fill="#FF3938"/>
<path opacity="0.2" d="M53.14 70.77C53.48 70.57 53.82 70.35 54.14 70.13C54.07 69.72 53.99 69.31 53.92 68.9C52.5867 61.72 51.1933 54.5533 49.74 47.4C48.34 40.5 46.88 33.6067 45.36 26.72C43.5097 26.5289 41.6401 26.6712 39.84 27.14C40.9 33.44 42.0533 39.7267 43.3 46C44.6933 52.9933 46.2133 59.9633 47.86 66.91C48.27 68.64 48.69 70.38 49.11 72.11L49.35 73.05C50.1994 72.6521 51.0213 72.1978 51.81 71.69C52.27 71.4 52.71 71.09 53.14 70.77Z" fill="white"/>
<path opacity="0.2" d="M34.56 39.15L32.82 30.63L32.26 31.07C31.76 31.47 31.26 31.89 30.8 32.33C31.84 37.41 32.8767 42.4833 33.91 47.55L37.61 65.55C38.23 68.6 38.86 71.65 39.48 74.71C40.274 74.7902 41.0722 74.8202 41.87 74.8L38.26 57.2L34.56 39.15Z" fill="white"/>
<path d="M16.4 83.8L22.4 78.37C22.549 78.2274 22.6503 78.0423 22.69 77.84L24 76.72C24.1342 76.6014 24.2285 76.4442 24.27 76.27C24.53 76.43 24.79 76.57 25.06 76.71C25.7521 77.1058 26.5438 77.2933 27.34 77.25H27.51C27.6643 77.2927 27.8265 77.2977 27.9831 77.2646C28.1397 77.2316 28.2861 77.1614 28.41 77.06C28.5283 76.9603 28.6296 76.8421 28.71 76.71C28.9665 76.4948 29.1715 76.2249 29.31 75.92C29.6347 75.1183 29.6347 74.2217 29.31 73.42C32.0991 75.2418 35.2232 76.4894 38.5 77.09C38.6396 77.2317 38.8125 77.3362 39.0029 77.3938C39.1934 77.4515 39.3952 77.4605 39.59 77.42L40.1 77.32H40.51C44.1759 77.6575 47.8646 76.9903 51.18 75.39C54.9884 73.3784 58.3815 70.6639 61.18 67.39C64.1 64.22 66.89 60.77 68.34 56.65C69.91 52.22 69.27 47.51 67.6 43.2C66.2025 39.4502 64.2178 35.9465 61.72 32.82C60.6543 31.051 59.2591 29.5031 57.61 28.26C57.21 27.88 56.8 27.5 56.38 27.14C56.2564 27.0312 56.1121 26.9485 55.9557 26.8969C55.7993 26.8454 55.6341 26.826 55.47 26.84C52.5743 25.2151 49.3453 24.2744 46.03 24.09C39 23.69 32 26.87 27 31.85C26.46 32.39 25.94 32.96 25.45 33.55C25.08 33.91 24.72 34.29 24.37 34.67C21.7918 37.5734 19.9198 41.0334 18.9 44.78C16.9819 51.5824 17.8265 58.8669 21.25 65.05C20.9655 64.9216 20.6571 64.8552 20.345 64.8552C20.0329 64.8552 19.7244 64.9216 19.44 65.05C19.1191 65.2249 18.8424 65.4707 18.631 65.7688C18.4195 66.0669 18.279 66.4093 18.22 66.77C18.0671 67.0374 17.9705 67.3332 17.9361 67.6393C17.9017 67.9454 17.9303 68.2553 18.02 68.55C18.2721 69.3047 18.6005 70.0318 19 70.72L19.09 70.87C17.9519 72.7336 16.6394 74.4847 15.17 76.1C13.5486 77.869 11.8222 79.5386 9.99999 81.1L8.82999 82.1C10.0795 84.0166 11.4559 85.8473 12.95 87.58L14.11 86.26L16.4 83.8ZM67 49.08C67.0905 49.743 67.1406 50.4109 67.15 51.08C67.1609 52.524 66.9484 53.961 66.52 55.34C66.8365 54.0299 67.001 52.6877 67.01 51.34C67 50.57 67 49.83 67 49.08ZM25.66 40.55C25.88 40.01 26.2 39.32 26.53 38.69C30.1282 34.0188 35.2472 30.7535 41 29.46C42.0418 29.2227 43.0971 29.0491 44.16 28.94C44.3212 29.0004 44.4932 29.0272 44.6652 29.0186C44.8372 29.01 45.0056 28.9662 45.16 28.89H45.23C45.62 28.89 46.01 28.89 46.41 28.89C47.6418 29.0609 48.8563 29.3386 50.04 29.72C51.6471 30.2263 53.1803 30.9425 54.6 31.85C56.021 32.7363 57.3275 33.7943 58.49 35L58.61 35.12C59.9016 36.6042 61.0035 38.2435 61.89 40C62.14 40.51 62.39 41 62.61 41.57C62.9644 42.6577 63.2352 43.771 63.42 44.9C63.42 45.01 63.42 45.12 63.42 45.23C63.4145 45.253 63.4145 45.277 63.42 45.3C63.42 45.51 63.47 45.73 63.49 45.95C63.54 46.36 63.57 46.78 63.59 47.19C63.63 48.0233 63.63 48.8533 63.59 49.68C63.5733 50.4557 63.5166 51.2301 63.42 52C63.29 52.83 63.12 53.65 62.92 54.47C62.72 55.29 62.46 56.08 62.18 56.87C61.9196 57.6091 61.6192 58.3336 61.28 59.04C60.8179 60.0128 60.2935 60.9548 59.71 61.86C57.9394 64.077 55.927 66.0894 53.71 67.86C50.6836 70.4141 47.1122 72.2409 43.27 73.2L42.52 73.34C41.24 73.2263 39.976 72.9749 38.75 72.59C38.35 72.47 37.96 72.34 37.56 72.2L37 72L36.68 71.88L36.48 71.8C34.222 70.8308 32.1273 69.5187 30.27 67.91C28.9876 66.7993 27.8124 65.5706 26.76 64.24C25.9748 63.2177 25.2725 62.1342 24.66 61C23.19 54.23 23 47.09 25.66 40.55ZM21.6 48.37C21.6 47.99 21.63 47.61 21.69 47.23V47.09C21.63 47.56 21.57 48.09 21.53 48.52C21.59 48.46 21.6 48.41 21.6 48.37Z" fill="#FF3938"/>
<path d="M85.57 58.36C83.9 57.42 82.15 56.51 81.23 54.89C81.1571 54.7672 81.0608 54.66 80.9464 54.5744C80.8321 54.4889 80.702 54.4267 80.5637 54.3914C80.2843 54.3201 79.988 54.3628 79.74 54.51C79.492 54.6572 79.3127 54.8969 79.2414 55.1763C79.1701 55.4557 79.2128 55.752 79.36 56C80.3772 57.5651 81.7922 58.8317 83.46 59.67C85.27 60.72 87.12 61.72 88.98 62.67C92.76 64.67 96.6 66.57 100.5 68.37L102.5 69.3C102.72 68.61 102.93 67.92 103.13 67.22C97.1633 64.5267 91.31 61.5733 85.57 58.36Z" fill="#C3BCCC"/>
<path d="M78.17 68.4101C77.9215 68.2676 77.627 68.2286 77.35 68.3016C77.0731 68.3746 76.836 68.5536 76.69 68.8001C76.5527 69.0497 76.5165 69.3425 76.5891 69.618C76.6617 69.8935 76.8375 70.1305 77.08 70.2801C82.5434 74.4392 88.4694 77.9525 94.74 80.7501L96.65 81.5801C97.05 80.9701 97.43 80.3501 97.8 79.7301C92.5565 77.5474 87.5337 74.8686 82.8 71.7301C81.24 70.6767 79.6967 69.5701 78.17 68.4101Z" fill="#C3BCCC"/>
<path d="M74.42 76C74.1727 75.8567 73.8791 75.8162 73.6023 75.8873C73.3254 75.9583 73.0876 76.1353 72.94 76.38C72.8027 76.6296 72.7665 76.9225 72.8391 77.198C72.9117 77.4735 73.0875 77.7105 73.33 77.86C78.8457 81.8907 84.7204 85.4055 90.88 88.36L91.23 88.53C91.74 87.98 92.23 87.42 92.72 86.85C88.0116 84.6297 83.4639 82.0835 79.11 79.23C77.5167 78.1834 75.9533 77.1067 74.42 76Z" fill="#C3BCCC"/>
<path d="M68.24 81.5601C68.1173 81.4882 67.9816 81.4413 67.8407 81.422C67.6998 81.4027 67.5565 81.4114 67.419 81.4476C67.2815 81.4839 67.1525 81.5469 67.0394 81.6331C66.9263 81.7193 66.8313 81.827 66.76 81.9501C66.6201 82.1991 66.5826 82.4928 66.6554 82.769C66.7282 83.0452 66.9056 83.2823 67.15 83.4301C72.9916 87.2988 79.037 90.8505 85.26 94.0701C85.88 93.5801 86.48 93.0701 87.07 92.5701C82.3567 90.1901 77.7533 87.5934 73.26 84.7801C71.5667 83.7334 69.8933 82.6601 68.24 81.5601Z" fill="#C3BCCC"/>
<path d="M54.29 85.7401C51.5634 84.0401 48.8467 82.3134 46.14 80.5601C46.0172 80.4852 45.8809 80.4353 45.7388 80.4131C45.5967 80.3909 45.4517 80.397 45.3119 80.4309C45.1722 80.4648 45.0405 80.5259 44.9243 80.6107C44.8082 80.6954 44.7099 80.8023 44.635 80.9251C44.5602 81.0479 44.5102 81.1842 44.4881 81.3263C44.4659 81.4684 44.4719 81.6134 44.5058 81.7532C44.5397 81.8929 44.6008 82.0246 44.6856 82.1408C44.7704 82.2569 44.8772 82.3552 45 82.4301C49.78 85.5301 54.61 88.5301 59.49 91.4301C64.37 94.3301 69.2867 97.1867 74.24 100L75.04 100.44C75.83 100.07 76.61 99.6801 77.38 99.2601C74.5333 97.7001 71.6967 96.1067 68.87 94.4801C63.97 91.6467 59.11 88.7334 54.29 85.7401Z" fill="#C3BCCC"/>
<path d="M48.16 90.26C45.48 88.6 42.81 86.9 40.16 85.19C39.9122 85.0492 39.6193 85.0102 39.3433 85.0811C39.0672 85.152 38.8294 85.3272 38.68 85.57C38.5396 85.8205 38.5018 86.1158 38.5745 86.3936C38.6473 86.6715 38.8249 86.9103 39.07 87.06C43.77 90.1 48.52 93.0567 53.32 95.93C57.7 98.5367 62.1233 101.08 66.59 103.56C67.59 103.29 68.52 103 69.47 102.68C67.15 101.4 64.83 100.11 62.53 98.8C57.69 96.04 52.9 93.1933 48.16 90.26Z" fill="#C3BCCC"/>
<path d="M38.11 96.62C37.8635 96.4962 37.5792 96.4704 37.3145 96.5479C37.0498 96.6255 36.8243 96.8004 36.6835 97.0377C36.5427 97.2749 36.497 97.5566 36.5558 97.8261C36.6145 98.0957 36.7733 98.3329 37 98.49C41 100.85 45.0167 103.127 49.05 105.32C50.23 105.4 51.41 105.44 52.61 105.44H53.85C50.21 103.527 46.6067 101.553 43.04 99.52C41.39 98.56 39.75 97.6 38.11 96.62Z" fill="#C3BCCC"/>
</g>
<defs>
<linearGradient id="paint0_linear" x1="14.32" y1="16.49" x2="90.76" y2="88.58" gradientUnits="userSpaceOnUse">
<stop stop-color="#FC742D"/>
<stop offset="0.19" stop-color="#FD682F"/>
<stop offset="0.54" stop-color="#FE4735"/>
<stop offset="0.67" stop-color="#FF3938"/>
</linearGradient>
<clipPath id="clip0">
<rect width="105.07" height="105.44" fill="white"/>
</clipPath>
</defs>
</svg>
