<svg width="104" height="25" viewBox="0 0 104 25" fill="none" xmlns="http://www.w3.org/2000/svg">
<g clip-path="url(#clip0)">
<path d="M7.9517 0.47095H9.74873C9.87863 0.470996 10.0069 0.500134 10.124 0.556224C10.2412 0.612314 10.3443 0.693932 10.4258 0.795087C10.5074 0.896242 10.5652 1.01437 10.595 1.14079C10.6249 1.26721 10.6261 1.39871 10.5985 1.52566L9.98721 4.35388C9.95994 4.48476 9.90287 4.60759 9.82043 4.71284C9.73799 4.81809 9.6324 4.90292 9.51187 4.96075C9.39133 5.01859 9.25909 5.04786 9.12541 5.0463C8.99173 5.04474 8.8602 5.0124 8.74105 4.95177L7.11196 4.16578C6.93527 4.07925 6.79282 3.9358 6.70752 3.75851C6.62223 3.58122 6.59905 3.38039 6.64171 3.18833L7.10524 1.14274C7.14938 0.951439 7.25716 0.780796 7.41094 0.65875C7.56471 0.536705 7.75537 0.47049 7.9517 0.47095Z" fill="url(#paint0_linear)"/>
<path d="M12.7715 3.85514L17.2758 4.83931C17.4963 4.88917 17.6969 5.00371 17.8519 5.16828C18.0069 5.33284 18.1092 5.53993 18.1458 5.76301L19.0997 11.3254C19.1358 11.5407 19.1098 11.7619 19.0247 11.963C18.9397 12.164 18.7991 12.3367 18.6194 12.4607L18.0181 12.8705C17.8012 13.0189 17.5397 13.0878 17.2778 13.0658C17.0159 13.0438 16.7696 12.9321 16.5805 12.7496L11.4447 7.75822C11.3155 7.63267 11.2178 7.47842 11.1594 7.308C11.1011 7.13758 11.0837 6.9558 11.1088 6.77741L11.3943 4.80572C11.4165 4.65009 11.4706 4.50073 11.5533 4.36705C11.636 4.23336 11.7454 4.11825 11.8748 4.02895C12.0042 3.93966 12.1506 3.87812 12.305 3.8482C12.4593 3.81829 12.6181 3.82065 12.7715 3.85514Z" fill="url(#paint1_linear)"/>
<path d="M22.7578 12.1663L23.564 14.0205C23.6061 14.112 23.6295 14.211 23.6327 14.3118C23.6359 14.4125 23.6188 14.5128 23.5824 14.6068C23.5461 14.7008 23.4912 14.7865 23.4211 14.8589C23.351 14.9313 23.2671 14.9888 23.1743 15.0282L21.7233 15.663C21.5619 15.7347 21.3803 15.747 21.2107 15.6979C21.041 15.6487 20.8942 15.5412 20.7962 15.3943L19.8758 14.0306C19.7661 13.8682 19.7236 13.6696 19.7575 13.4766C19.7913 13.2836 19.8988 13.1113 20.0572 12.996L21.6225 11.8674C21.7133 11.8009 21.8177 11.7556 21.9283 11.7346C22.0388 11.7137 22.1526 11.7177 22.2614 11.7463C22.3702 11.775 22.4712 11.8276 22.5571 11.9002C22.643 11.9729 22.7115 12.0638 22.7578 12.1663Z" fill="url(#paint2_linear)"/>
<path d="M0.588665 6.1493L2.05652 6.21312C2.13709 6.21731 2.2158 6.23882 2.2873 6.2762C2.35879 6.31357 2.42139 6.36593 2.4708 6.42969C2.52022 6.49346 2.55531 6.56714 2.57366 6.6457C2.59201 6.72426 2.59321 6.80585 2.57716 6.88491L2.31852 8.16467C2.2968 8.27325 2.24342 8.37298 2.16512 8.45129C2.08681 8.52959 1.98708 8.58297 1.8785 8.60469L0.934636 8.78607C0.861823 8.79963 0.787047 8.79863 0.714622 8.78314C0.642197 8.76765 0.573557 8.73797 0.512663 8.69581C0.451768 8.65365 0.399825 8.59985 0.359831 8.53751C0.319837 8.47518 0.292583 8.40554 0.279643 8.33261L0.00756858 6.79758C-0.00615787 6.71512 -0.00116824 6.63063 0.0221683 6.55036C0.0455048 6.47009 0.086591 6.3961 0.142387 6.33385C0.198183 6.2716 0.267261 6.2227 0.34451 6.19076C0.421759 6.15881 0.505202 6.14464 0.588665 6.1493Z" fill="url(#paint3_linear)"/>
<path d="M7.12828 6.18081L8.02175 7.42362C8.10137 7.53374 8.15561 7.66013 8.18058 7.7937C8.20556 7.92728 8.20064 8.06472 8.16619 8.19617L7.25256 11.8137C7.212 11.9794 7.12453 12.1298 7.00064 12.2471L4.57884 14.5983C4.4628 14.7104 4.31934 14.79 4.16284 14.8291C4.00635 14.8683 3.84231 14.8656 3.68717 14.8214C3.53203 14.7771 3.39124 14.6929 3.27892 14.5771C3.16659 14.4613 3.08667 14.3181 3.04717 14.1616L2.23766 10.9371C2.20306 10.7986 2.20114 10.654 2.23203 10.5147C2.26293 10.3754 2.3258 10.2451 2.41569 10.1343L5.6705 6.14386C5.75889 6.03387 5.87147 5.94576 5.99948 5.88639C6.12748 5.82702 6.26747 5.79799 6.40853 5.80156C6.54959 5.80514 6.68793 5.84122 6.81276 5.907C6.9376 5.97278 7.04557 6.06648 7.12828 6.18081Z" fill="url(#paint4_linear)"/>
<path d="M10.5716 9.06208H11.1057C11.3807 9.06208 11.6504 9.13797 11.8851 9.28138C12.1198 9.4248 12.3104 9.63019 12.4358 9.87494L13.9474 12.898C14.0897 13.1772 14.1407 13.4942 14.0931 13.804C14.0455 14.1139 13.9017 14.4009 13.682 14.6245L12.6407 15.6859C12.3794 15.9531 12.0272 16.1124 11.654 16.1323C11.2808 16.1522 10.9136 16.0313 10.6254 15.7934L8.72084 14.2181C8.48289 14.023 8.31075 13.7595 8.22782 13.4632C8.14488 13.1669 8.15518 12.8523 8.25731 12.5621L9.14407 10.063C9.24781 9.7681 9.44123 9.513 9.69723 9.3335C9.95323 9.154 10.259 9.05909 10.5716 9.06208Z" fill="url(#paint5_linear)"/>
<path d="M12.4356 18.2747L16.4663 14.6773C16.5782 14.5763 16.7151 14.5071 16.8628 14.477C17.0105 14.4468 17.1636 14.4569 17.3061 14.506L18.4145 14.8788C18.6167 14.9468 18.7863 15.0877 18.89 15.2741C18.9937 15.4605 19.0242 15.6789 18.9755 15.8865L18.213 19.3462C18.1854 19.4748 18.1282 19.5951 18.046 19.6977C17.9638 19.8003 17.8588 19.8824 17.7394 19.9374L13.3459 21.9695C13.2157 22.03 13.0724 22.0566 12.9292 22.047C12.786 22.0374 12.6475 21.9918 12.5266 21.9144C12.4057 21.837 12.3063 21.7304 12.2376 21.6044C12.1688 21.4785 12.1329 21.3372 12.1333 21.1936V18.9263C12.1333 18.8023 12.1603 18.6797 12.2125 18.5672C12.2647 18.4546 12.3409 18.3548 12.4356 18.2747Z" fill="url(#paint6_linear)"/>
<path d="M4.71007 16.47L6.89338 15.4624C7.10465 15.3675 7.34133 15.3451 7.56667 15.3985C7.792 15.452 7.99339 15.5783 8.13955 15.7579L9.42266 17.3434C9.53787 17.4872 9.61338 17.6587 9.64167 17.8408C9.66996 18.0229 9.65004 18.2093 9.58389 18.3813L8.57621 20.9475C8.48878 21.1784 8.3224 21.3709 8.10658 21.4908C7.89076 21.6107 7.63945 21.6503 7.39722 21.6025L5.33819 21.1155C5.13536 21.0676 4.95149 20.9601 4.81022 20.8068C4.66896 20.6536 4.57676 20.4616 4.54548 20.2556L4.13905 17.5684C4.10418 17.3483 4.14083 17.1229 4.24361 16.9252C4.3464 16.7275 4.50989 16.5679 4.71007 16.47Z" fill="url(#paint7_linear)"/>
<path d="M9.13368 21.9793L10.3362 21.5897C10.4437 21.5553 10.56 21.5604 10.6641 21.6041C10.7681 21.6478 10.8532 21.7273 10.9038 21.8282L11.9115 23.7965C11.9432 23.8618 11.9595 23.9335 11.9591 24.0061C11.9586 24.0787 11.9415 24.1502 11.9091 24.2152C11.8766 24.2801 11.8297 24.3367 11.7718 24.3806C11.714 24.4245 11.6469 24.4545 11.5756 24.4683L9.14376 24.9251C9.06907 24.9414 8.99158 24.9394 8.9178 24.9195C8.84402 24.8995 8.77612 24.8621 8.71982 24.8104C8.66352 24.7587 8.62046 24.6942 8.59428 24.6224C8.5681 24.5506 8.55956 24.4736 8.56938 24.3978L8.81123 22.3824C8.81981 22.2911 8.85491 22.2043 8.91221 22.1327C8.9695 22.0611 9.04649 22.0078 9.13368 21.9793Z" fill="url(#paint8_linear)"/>
<path d="M96.5122 9.77169V10.2453C95.7469 9.798 94.8803 9.55299 93.994 9.5334C93.3241 9.52052 92.6583 9.64107 92.0354 9.88803C91.4125 10.135 90.8449 10.5034 90.3658 10.9719C89.8867 11.4403 89.5055 11.9994 89.2446 12.6166C88.9837 13.2338 88.8482 13.8967 88.8459 14.5668C88.8459 17.3144 91.0846 19.7472 93.8911 19.5942C94.8021 19.6634 95.7124 19.4497 96.4975 18.9824V19.5383H99.1715C99.1715 16.2828 99.1715 13.0272 99.1715 9.77169H96.5122ZM93.9205 17.079C92.3937 17.1967 91.367 15.867 91.3523 14.5521C91.3643 13.8811 91.6352 13.2407 92.1083 12.7649C92.5814 12.289 93.2202 12.0144 93.8911 11.9986C95.4237 12.0251 96.4916 13.0871 96.4857 14.5756C96.4798 16.0641 95.4679 17.0849 93.9205 17.079Z" fill="white"/>
<path d="M100.981 9.81494V19.5787L103.652 19.614C103.652 16.3506 103.652 13.0881 103.652 9.82671L100.981 9.81494Z" fill="white"/>
<path d="M52.7914 6.29199L52.7649 19.3122L55.436 19.3534L55.4625 6.30376L52.7914 6.29199Z" fill="white"/>
<path d="M46.7377 9.30806C46.0676 9.29518 45.4017 9.41571 44.7786 9.66264C44.1555 9.90956 43.5878 10.2779 43.1084 10.7463C42.6291 11.2148 42.2477 11.7738 41.9864 12.391C41.7252 13.0082 41.5893 13.6712 41.5867 14.3414C41.5867 17.089 43.8254 19.5219 46.6347 19.3689C49.4265 19.5895 51.7534 17.1184 51.7563 14.3679C51.751 13.0347 51.2219 11.757 50.283 10.8104C49.3441 9.86385 48.0708 9.32426 46.7377 9.30806ZM46.673 16.8537C45.1462 16.9714 44.1166 15.6417 44.1048 14.3267C44.116 13.656 44.3863 13.0157 44.8589 12.5397C45.3316 12.0638 45.97 11.7891 46.6406 11.7733C48.1733 11.8027 49.2441 12.8617 49.2382 14.3502C49.2323 15.8388 48.2086 16.8596 46.673 16.8537Z" fill="white"/>
<path d="M61.9225 9.24605C61.2526 9.23317 60.5867 9.35372 59.9638 9.60067C59.3409 9.84763 58.7734 10.2161 58.2943 10.6845C57.8151 11.153 57.434 11.712 57.1731 12.3292C56.9122 12.9464 56.7766 13.6093 56.7744 14.2794C56.7744 17.027 59.0102 19.4599 61.8195 19.3069C63.8788 19.4687 65.6791 18.1714 66.4881 16.3651C65.785 16.3651 64.3848 16.3651 63.3846 16.3651C62.9289 16.6574 62.396 16.806 61.8548 16.7917C61.3795 16.8259 60.9051 16.7134 60.4958 16.4693C60.0864 16.2251 59.7619 15.8612 59.5661 15.4267L64.1582 15.4855C64.2259 15.4855 64.4965 15.4855 64.5318 15.4855C64.8466 15.4855 65.1614 15.4855 65.4762 15.4855C65.7909 15.4855 66.1027 15.4855 66.4175 15.4855H66.7882C66.8871 15.0931 66.9374 14.69 66.9382 14.2853C66.9275 12.9562 66.3964 11.6841 65.4587 10.7421C64.5211 9.80002 63.2516 9.26294 61.9225 9.24605ZM59.4632 13.3645C59.6495 12.8883 59.9722 12.4777 60.3908 12.1842C60.8095 11.8906 61.3054 11.7271 61.8166 11.7142C62.3478 11.6975 62.8706 11.8496 63.3099 12.1488C63.7492 12.448 64.0822 12.8788 64.2612 13.3792L59.4632 13.3645Z" fill="white"/>
<path d="M79.4175 9.7487C79.4175 9.7487 76.4757 8.83381 75.046 11.2755C74.798 10.7569 74.4058 10.3208 73.9164 10.0193C73.5638 9.80928 73.1708 9.67596 72.7632 9.62808C71.1953 9.56042 70.6863 10.1547 70.6098 10.2576V9.62514H67.9387V19.3977L70.6098 19.433C70.6098 17.5404 70.6098 15.6479 70.6098 13.7554C70.6803 13.4643 70.8079 13.1901 70.9851 12.9488C71.1624 12.7074 71.3858 12.5036 71.6424 12.3492C71.8984 12.2009 72.191 12.1276 72.4867 12.1374C72.7424 12.1479 72.9914 12.2219 73.2113 12.3529C73.4311 12.4839 73.6148 12.6677 73.7458 12.8876C73.8435 13.0883 73.9014 13.3061 73.9164 13.5289V19.4801L76.2198 19.5065V13.9172C76.257 13.5996 76.357 13.2926 76.514 13.0141C76.6346 12.8022 77.0817 12.0286 77.7877 12.0168C78.031 12.022 78.267 12.101 78.4644 12.2433C79.2439 12.7611 79.238 13.8672 79.238 14.0084L79.2116 19.4889H82.0327C81.9994 17.3453 81.968 15.2017 81.9386 13.0582C81.9386 13.0582 81.7356 10.3429 79.4175 9.7487Z" fill="white"/>
<path d="M85.4539 15.2642C85.0391 15.2624 84.6331 15.3837 84.2872 15.6128C83.9413 15.8418 83.6711 16.1682 83.5107 16.5508C83.3503 16.9334 83.307 17.355 83.3863 17.7622C83.4655 18.1694 83.6637 18.544 83.9558 18.8385C84.2479 19.1331 84.6208 19.3344 85.0273 19.4171C85.4338 19.4997 85.8557 19.46 86.2396 19.3028C86.6236 19.1457 86.9523 18.8782 87.1842 18.5343C87.4161 18.1903 87.5408 17.7853 87.5426 17.3705C87.5438 17.095 87.4907 16.8221 87.3863 16.5671C87.282 16.3122 87.1285 16.0803 86.9345 15.8848C86.7406 15.6892 86.51 15.5337 86.2559 15.4272C86.0019 15.3207 85.7294 15.2653 85.4539 15.2642Z" fill="white"/>
<path d="M102.381 8.23117C102.731 8.23525 103.074 8.13521 103.367 7.94377C103.66 7.75232 103.889 7.4781 104.026 7.15596C104.163 6.83382 104.201 6.4783 104.135 6.13456C104.069 5.79083 103.903 5.4744 103.657 5.22549C103.411 4.97658 103.096 4.80642 102.754 4.73663C102.411 4.66683 102.055 4.70057 101.731 4.83353C101.407 4.9665 101.13 5.1927 100.935 5.48339C100.741 5.77408 100.636 6.11614 100.636 6.46611C100.636 6.93069 100.82 7.37654 101.146 7.70697C101.473 8.0374 101.916 8.22575 102.381 8.23117Z" fill="white"/>
<path d="M32.3404 9.34995C32.7548 8.9426 33.2417 8.61634 33.776 8.388C34.3352 8.15172 34.937 8.03243 35.5441 8.03749C36.1512 8.04255 36.7508 8.17184 37.3061 8.41741C37.8578 8.66458 38.3571 9.01507 38.777 9.44997L40.2773 6.97595C38.9563 5.8412 37.2736 5.21528 35.5322 5.21089C34.8734 5.20599 34.2171 5.29212 33.5818 5.46682C32.3594 5.79977 31.2443 6.44446 30.3459 7.33779C29.8967 7.77514 29.507 8.26967 29.1868 8.80867C28.866 9.35842 28.6159 9.94653 28.4426 10.559C28.2612 11.1902 28.17 11.8439 28.1719 12.5006C28.166 13.1612 28.2512 13.8195 28.4249 14.4569C28.5925 15.0741 28.8387 15.6673 29.1574 16.2219C29.4713 16.7683 29.8561 17.2708 30.3018 17.7163C30.7427 18.1607 31.2367 18.549 31.7726 18.8724C32.3195 19.1984 32.9071 19.4507 33.52 19.6226C34.1534 19.8033 34.8088 19.8954 35.4675 19.8962C37.209 19.9054 38.8968 19.2931 40.2273 18.1694L40.2508 12.5565H37.5032L37.4855 16.6014C37.1782 16.7551 36.8545 16.8735 36.5206 16.9544C36.1801 17.0399 35.8303 17.0824 35.4793 17.0809C34.8777 17.0825 34.2825 16.9583 33.7318 16.7161C32.6526 16.2452 31.7947 15.3788 31.3343 14.2951C31.0984 13.7368 30.9793 13.1361 30.9842 12.53C30.9841 11.9286 31.1083 11.3337 31.349 10.7826C31.5842 10.2457 31.9208 9.75925 32.3404 9.34995Z" fill="white"/>
</g>
<defs>
<linearGradient id="paint0_linear" x1="8.61962" y1="0.470947" x2="8.61962" y2="5.04636" gradientUnits="userSpaceOnUse">
<stop stop-color="#FF7D3E"/>
<stop offset="0.786358" stop-color="#FF4A4A"/>
<stop offset="0.786458" stop-color="#FF4A4A"/>
<stop offset="1" stop-color="#FF4645"/>
</linearGradient>
<linearGradient id="paint1_linear" x1="15.1066" y1="3.82739" x2="15.1066" y2="13.0698" gradientUnits="userSpaceOnUse">
<stop stop-color="#FF7D3E"/>
<stop offset="0.786358" stop-color="#FF4A4A"/>
<stop offset="0.786458" stop-color="#FF4A4A"/>
<stop offset="1" stop-color="#FF4645"/>
</linearGradient>
<linearGradient id="paint2_linear" x1="21.6896" y1="11.7214" x2="21.6896" y2="15.7275" gradientUnits="userSpaceOnUse">
<stop stop-color="#FF7D3E"/>
<stop offset="0.786358" stop-color="#FF4A4A"/>
<stop offset="0.786458" stop-color="#FF4A4A"/>
<stop offset="1" stop-color="#FF4645"/>
</linearGradient>
<linearGradient id="paint3_linear" x1="1.29418" y1="6.14844" x2="1.29418" y2="8.79555" gradientUnits="userSpaceOnUse">
<stop stop-color="#FF7D3E"/>
<stop offset="0.786358" stop-color="#FF4A4A"/>
<stop offset="0.786458" stop-color="#FF4A4A"/>
<stop offset="1" stop-color="#FF4645"/>
</linearGradient>
<linearGradient id="paint4_linear" x1="5.20323" y1="5.80127" x2="5.20323" y2="14.8566" gradientUnits="userSpaceOnUse">
<stop stop-color="#FF7D3E"/>
<stop offset="0.786358" stop-color="#FF4A4A"/>
<stop offset="0.786458" stop-color="#FF4A4A"/>
<stop offset="1" stop-color="#FF4645"/>
</linearGradient>
<linearGradient id="paint5_linear" x1="11.1414" y1="9.06201" x2="11.1414" y2="16.1345" gradientUnits="userSpaceOnUse">
<stop stop-color="#FF7D3E"/>
<stop offset="0.786358" stop-color="#FF4A4A"/>
<stop offset="0.786458" stop-color="#FF4A4A"/>
<stop offset="1" stop-color="#FF4645"/>
</linearGradient>
<linearGradient id="paint6_linear" x1="15.5657" y1="14.46" x2="15.5657" y2="22.0489" gradientUnits="userSpaceOnUse">
<stop stop-color="#FF7D3E"/>
<stop offset="0.786358" stop-color="#FF4A4A"/>
<stop offset="0.786458" stop-color="#FF4A4A"/>
<stop offset="1" stop-color="#FF4645"/>
</linearGradient>
<linearGradient id="paint7_linear" x1="6.89019" y1="15.3701" x2="6.89019" y2="21.6222" gradientUnits="userSpaceOnUse">
<stop stop-color="#FF7D3E"/>
<stop offset="0.786358" stop-color="#FF4A4A"/>
<stop offset="0.786458" stop-color="#FF4A4A"/>
<stop offset="1" stop-color="#FF4645"/>
</linearGradient>
<linearGradient id="paint8_linear" x1="10.2623" y1="21.5671" x2="10.2623" y2="24.936" gradientUnits="userSpaceOnUse">
<stop stop-color="#FF7D3E"/>
<stop offset="0.786358" stop-color="#FF4A4A"/>
<stop offset="0.786458" stop-color="#FF4A4A"/>
<stop offset="1" stop-color="#FF4645"/>
</linearGradient>
<clipPath id="clip0">
<rect width="104" height="25" fill="white"/>
</clipPath>
</defs>
</svg>
